<svg width="40" height="40" viewBox="0 0 40 40" fill="none" xmlns="http://www.w3.org/2000/svg">
<mask id="mask0_300_4041" style="mask-type:alpha" maskUnits="userSpaceOnUse" x="0" y="0" width="40" height="40">
<circle cx="20" cy="20" r="20" fill="#EBF3FF"/>
</mask>
<g mask="url(#mask0_300_4041)">
<path d="M8.38327 26.2257L9.82051 21.2632C9.83977 21.1967 9.84125 21.1263 9.82481 21.0591L8.01132 13.6403C7.99339 13.5669 7.99682 13.49 8.02119 13.4185L9.09572 10.2682C9.16798 10.0563 9.4014 9.94647 9.61069 10.0258L16.7656 12.7388C16.8104 12.7558 16.858 12.7646 16.9059 12.7646H23.0941C23.142 12.7646 23.1896 12.7558 23.2344 12.7388L30.3893 10.0258C30.5986 9.94647 30.832 10.0563 30.9043 10.2682L31.9788 13.4185C32.0032 13.49 32.0066 13.5669 31.9887 13.6403L30.1752 21.0591C30.1588 21.1263 30.1602 21.1967 30.1795 21.2632L31.6167 26.2257C31.6375 26.2976 31.6376 26.3739 31.6168 26.4457L30.2856 31.0539C30.2259 31.2603 30.0126 31.3814 29.8048 31.3269L25.1782 30.1134C25.0678 30.0844 24.9501 30.1046 24.8556 30.1687L21.8536 32.2049C21.788 32.2493 21.7106 32.2731 21.6314 32.2731H18.3686C18.2894 32.2731 18.212 32.2493 18.1464 32.2049L15.1444 30.1687C15.0499 30.1046 14.9323 30.0844 14.8218 30.1134L10.1952 31.3269C9.98738 31.3814 9.77407 31.2603 9.71445 31.0539L8.38319 26.4457C8.36243 26.3739 8.36246 26.2976 8.38327 26.2257Z" fill="#3A86FF"/>
<path d="M8.56101 32.8955C8.35069 32.9507 8.13549 32.8515 8.03679 32.667C6.77017 34.0823 6 35.9512 6 38V40H34V38C34 35.9512 33.2298 34.0823 31.9632 32.667C31.8645 32.8515 31.6493 32.9507 31.439 32.8955L26.0413 31.4789C25.9124 31.4451 25.7752 31.4686 25.6649 31.5435L22.1625 33.9203C22.086 33.9723 21.9957 34 21.9033 34H18.0967C18.0043 34 17.914 33.9723 17.8375 33.9203L14.3351 31.5435C14.2248 31.4686 14.0876 31.4451 13.9587 31.4789L8.56101 32.8955Z" fill="#3A86FF"/>
</g>
</svg>
