<svg xmlns="http://www.w3.org/2000/svg" width="18" height="18" viewBox="0 0 18 18" fill="none">
  <path d="M4.73345 11.1333H3.73345V11.4245L3.88979 11.6702L4.73345 11.1333ZM7.61089 15.655L8.45455 15.1182L7.61089 15.655ZM10.4556 14.0444L9.5612 14.4916V14.4916L10.4556 14.0444ZM9.00011 11.1333V10.1333C8.65354 10.1333 8.33167 10.3128 8.14946 10.6076C7.96726 10.9024 7.95069 11.2706 8.10569 11.5805L9.00011 11.1333ZM16.4668 5.8H17.4668V5.46667L17.2668 5.2L16.4668 5.8ZM13.9068 2.38667L14.7068 1.78667L14.7068 1.78667L13.9068 2.38667ZM9.8338 16.1798L10.3483 17.0373H10.3483L9.8338 16.1798ZM2.53345 11.6667V1H0.533447V11.6667H2.53345ZM3.88979 11.6702L6.76723 16.1919L8.45455 15.1182L5.57711 10.5965L3.88979 11.6702ZM11.3501 13.5972L9.89454 10.6861L8.10569 11.5805L9.5612 14.4916L11.3501 13.5972ZM9.00011 12.1333H14.3334V10.1333H9.00011V12.1333ZM17.4668 9V5.8H15.4668V9H17.4668ZM17.2668 5.2L14.7068 1.78667L13.1068 2.98667L15.6668 6.4L17.2668 5.2ZM12.2001 0.533333H6.86678V2.53333H12.2001V0.533333ZM3.73345 3.66667V11.1333H5.73345V3.66667H3.73345ZM14.3334 12.1333C16.0639 12.1333 17.4668 10.7305 17.4668 9H15.4668C15.4668 9.62592 14.9594 10.1333 14.3334 10.1333V12.1333ZM6.86678 0.533333C5.13629 0.533333 3.73345 1.93617 3.73345 3.66667H5.73345C5.73345 3.04074 6.24086 2.53333 6.86678 2.53333V0.533333ZM10.3483 17.0373C11.5297 16.3284 11.9662 14.8295 11.3501 13.5972L9.5612 14.4916C9.70999 14.7892 9.60459 15.1511 9.3193 15.3223L10.3483 17.0373ZM14.7068 1.78667C14.115 0.997676 13.1864 0.533333 12.2001 0.533333V2.53333C12.5568 2.53333 12.8927 2.70129 13.1068 2.98667L14.7068 1.78667ZM6.76723 16.1919C7.53453 17.3977 9.12277 17.7726 10.3483 17.0373L9.3193 15.3223C9.02336 15.4999 8.63984 15.4093 8.45455 15.1182L6.76723 16.1919Z" fill="#3A86FF"/>
</svg>