<svg xmlns="http://www.w3.org/2000/svg" width="18" height="18" viewBox="0 0 18 18" fill="none">
<path d="M4.73345 6.86664L3.88979 6.32976L3.73345 6.57544V6.86664H4.73345ZM7.61089 2.34494L8.45455 2.88182L7.61089 2.34494ZM10.4556 3.9556L9.5612 3.50839V3.50839L10.4556 3.9556ZM9.00011 6.86664L8.10569 6.41943C7.95069 6.72941 7.96726 7.09755 8.14946 7.39237C8.33167 7.68719 8.65354 7.86664 9.00011 7.86664V6.86664ZM16.4668 12.2L17.2668 12.8L17.4668 12.5333V12.2H16.4668ZM13.9068 15.6133L14.7068 16.2133L14.7068 16.2133L13.9068 15.6133ZM9.8338 1.82018L10.3483 0.96269L10.3483 0.96269L9.8338 1.82018ZM0.533447 6.33331V17H2.53345V6.33331H0.533447ZM5.57711 7.40352L8.45455 2.88182L6.76723 1.80806L3.88979 6.32976L5.57711 7.40352ZM9.5612 3.50839L8.10569 6.41943L9.89454 7.31385L11.3501 4.40282L9.5612 3.50839ZM9.00011 7.86664H14.3334V5.86664H9.00011V7.86664ZM15.4668 8.99997V12.2H17.4668V8.99997H15.4668ZM15.6668 11.6L13.1068 15.0133L14.7068 16.2133L17.2668 12.8L15.6668 11.6ZM12.2001 15.4666H6.86678V17.4666H12.2001V15.4666ZM5.73345 14.3333V6.86664H3.73345V14.3333H5.73345ZM14.3334 7.86664C14.9594 7.86664 15.4668 8.37405 15.4668 8.99997H17.4668C17.4668 7.26948 16.0639 5.86664 14.3334 5.86664V7.86664ZM6.86678 15.4666C6.24086 15.4666 5.73345 14.9592 5.73345 14.3333H3.73345C3.73345 16.0638 5.13629 17.4666 6.86678 17.4666V15.4666ZM9.3193 2.67768C9.60459 2.84885 9.70999 3.21081 9.5612 3.50839L11.3501 4.40282C11.9662 3.1705 11.5297 1.67155 10.3483 0.96269L9.3193 2.67768ZM13.1068 15.0133C12.8927 15.2987 12.5568 15.4666 12.2001 15.4666V17.4666C13.1864 17.4666 14.115 17.0023 14.7068 16.2133L13.1068 15.0133ZM8.45455 2.88182C8.63984 2.59065 9.02336 2.50011 9.3193 2.67768L10.3483 0.96269C9.12277 0.227375 7.53453 0.60231 6.76723 1.80806L8.45455 2.88182Z" fill="#3A86FF"/>
</svg>